# 3ds Max Wavefront OBJ Exporter v0.97b - (c)2007 guruware
# File Created: 07.09.2017 11:14:02

mtllib Tube00.mtl

#
# object Circle001
#

v  54.9319 0.0000 9.3642
v  54.5667 9.8431 9.3642
v  37.4076 6.6921 9.3647
v  37.6583 -0.0000 9.3647
v  53.4981 19.4848 9.3643
v  36.6750 13.2442 9.3647
v  51.7530 28.7245 9.3643
v  35.4798 19.5166 9.3648
v  49.3740 37.4900 9.3644
v  33.8503 25.4664 9.3648
v  46.4035 45.7104 9.3644
v  31.8147 31.0511 9.3648
v  42.8835 53.3220 9.3645
v  29.4014 36.2267 9.3649
v  38.8558 60.2620 9.3646
v  26.6390 40.9498 9.3649
v  34.3609 66.4700 9.3647
v  23.5565 45.1768 9.3650
v  29.4397 71.8861 9.3647
v  20.1828 48.8650 9.3650
v  24.1333 76.4492 9.3648
v  16.5467 51.9724 9.3650
v  18.4828 80.0987 9.3649
v  12.6769 54.4573 9.3651
v  12.5334 82.7727 9.3649
v  8.6006 56.2783 9.3651
v  6.3302 84.4088 9.3649
v  4.3451 57.3939 9.3651
v  -0.0000 84.9677 9.3649
v  -0.0000 57.7755 9.3651
v  -6.3302 84.4088 9.3649
v  -4.3451 57.3939 9.3651
v  -12.5334 82.7727 9.3649
v  -8.6006 56.2783 9.3651
v  -18.4828 80.0988 9.3649
v  -12.6769 54.4573 9.3651
v  -24.1332 76.4493 9.3648
v  -16.5467 51.9724 9.3650
v  -29.4397 71.8861 9.3647
v  -20.1828 48.8650 9.3650
v  -34.3609 66.4700 9.3647
v  -23.5565 45.1768 9.3650
v  -38.8558 60.2620 9.3646
v  -26.6390 40.9497 9.3649
v  -42.8835 53.3220 9.3645
v  -29.4014 36.2267 9.3649
v  -46.4035 45.7105 9.3644
v  -31.8147 31.0511 9.3648
v  -49.3740 37.4901 9.3644
v  -33.8503 25.4663 9.3648
v  -51.7530 28.7246 9.3643
v  -35.4798 19.5165 9.3648
v  -53.4981 19.4848 9.3643
v  -36.6750 13.2442 9.3647
v  -54.5667 9.8431 9.3642
v  -37.4076 6.6921 9.3647
v  -54.9319 -0.0000 9.3642
v  -37.6583 -0.0000 9.3647
v  -54.5667 -9.8431 9.3642
v  -37.4076 -6.6921 9.3647
v  -53.4981 -19.4848 9.3643
v  -36.6750 -13.2442 9.3647
v  -51.7530 -28.7245 9.3643
v  -35.4798 -19.5166 9.3648
v  -49.3740 -37.4901 9.3644
v  -33.8503 -25.4663 9.3648
v  -46.4035 -45.7105 9.3644
v  -31.8147 -31.0511 9.3648
v  -42.8835 -53.3220 9.3645
v  -29.4014 -36.2267 9.3649
v  -38.8558 -60.2621 9.3646
v  -26.6390 -40.9498 9.3649
v  -34.3609 -66.4700 9.3647
v  -23.5565 -45.1768 9.3650
v  -29.4397 -71.8861 9.3647
v  -20.1828 -48.8650 9.3650
v  -24.1333 -76.4492 9.3648
v  -16.5467 -51.9724 9.3650
v  -18.4828 -80.0987 9.3649
v  -12.6769 -54.4573 9.3651
v  -12.5334 -82.7727 9.3649
v  -8.6006 -56.2783 9.3651
v  -6.3302 -84.4088 9.3649
v  -4.3451 -57.3939 9.3651
v  0.0000 -84.9677 9.3649
v  -0.0000 -57.7755 9.3651
v  6.3302 -84.4088 9.3649
v  4.3451 -57.3939 9.3651
v  12.5334 -82.7727 9.3649
v  8.6006 -56.2783 9.3651
v  18.4827 -80.0988 9.3649
v  12.6769 -54.4573 9.3651
v  24.1332 -76.4493 9.3648
v  16.5467 -51.9724 9.3650
v  29.4396 -71.8861 9.3647
v  20.1828 -48.8650 9.3650
v  34.3609 -66.4700 9.3647
v  23.5565 -45.1768 9.3650
v  38.8558 -60.2620 9.3646
v  26.6390 -40.9498 9.3649
v  42.8835 -53.3220 9.3645
v  29.4014 -36.2267 9.3649
v  46.4035 -45.7104 9.3644
v  31.8147 -31.0511 9.3648
v  49.3740 -37.4900 9.3644
v  33.8503 -25.4663 9.3648
v  51.7530 -28.7245 9.3643
v  35.4798 -19.5166 9.3648
v  53.4981 -19.4848 9.3643
v  36.6750 -13.2442 9.3647
v  54.5667 -9.8431 9.3642
v  37.4076 -6.6921 9.3647
# 112 vertices

vn 0.0000 0.0000 1.0000
vn -0.0000 0.0000 1.0000
vn -0.0000 -0.0000 1.0000
vn 0.0000 -0.0000 1.0000
# 4 vertex normals

vt 0.2661 0.9691 0.0000
vt 0.2492 0.9691 0.0000
vt 0.2492 0.0285 0.0000
vt 0.2661 0.0285 0.0000
vt 0.2325 0.9691 0.0000
vt 0.2325 0.0285 0.0000
vt 0.2159 0.9691 0.0000
vt 0.2159 0.0285 0.0000
vt 0.1995 0.9691 0.0000
vt 0.1995 0.0285 0.0000
vt 0.1831 0.9691 0.0000
vt 0.1831 0.0285 0.0000
vt 0.1668 0.9691 0.0000
vt 0.1668 0.0285 0.0000
vt 0.1505 0.9691 0.0000
vt 0.1505 0.0285 0.0000
vt 0.1342 0.9691 0.0000
vt 0.1342 0.0285 0.0000
vt 0.1178 0.9691 0.0000
vt 0.1178 0.0285 0.0000
vt 0.1013 0.9691 0.0000
vt 0.1013 0.0285 0.0000
vt 0.0845 0.9691 0.0000
vt 0.0845 0.0285 0.0000
vt 0.0673 0.9691 0.0000
vt 0.0673 0.0285 0.0000
vt 0.0492 0.9691 0.0000
vt 0.0492 0.0285 0.0000
vt 0.0308 0.9691 0.0000
vt 0.0308 0.0285 0.0000
vt 0.9633 0.9691 0.0000
vt 0.9468 0.9691 0.0000
vt 0.9468 0.0285 0.0000
vt 0.9633 0.0285 0.0000
vt 0.9303 0.9691 0.0000
vt 0.9303 0.0285 0.0000
vt 0.9138 0.9691 0.0000
vt 0.9138 0.0285 0.0000
vt 0.8974 0.9691 0.0000
vt 0.8974 0.0285 0.0000
vt 0.8810 0.9691 0.0000
vt 0.8810 0.0285 0.0000
vt 0.8647 0.9691 0.0000
vt 0.8647 0.0285 0.0000
vt 0.8484 0.9691 0.0000
vt 0.8484 0.0285 0.0000
vt 0.8321 0.9691 0.0000
vt 0.8321 0.0285 0.0000
vt 0.8157 0.9691 0.0000
vt 0.8157 0.0285 0.0000
vt 0.7992 0.9691 0.0000
vt 0.7992 0.0285 0.0000
vt 0.7824 0.9691 0.0000
vt 0.7824 0.0285 0.0000
vt 0.7655 0.9691 0.0000
vt 0.7655 0.0285 0.0000
vt 0.7485 0.9691 0.0000
vt 0.7485 0.0285 0.0000
vt 0.7314 0.9691 0.0000
vt 0.7314 0.0285 0.0000
vt 0.7145 0.9691 0.0000
vt 0.7145 0.0285 0.0000
vt 0.6977 0.9691 0.0000
vt 0.6977 0.0285 0.0000
vt 0.6812 0.9691 0.0000
vt 0.6812 0.0285 0.0000
vt 0.6647 0.9691 0.0000
vt 0.6647 0.0285 0.0000
vt 0.6484 0.9691 0.0000
vt 0.6484 0.0285 0.0000
vt 0.6321 0.9691 0.0000
vt 0.6321 0.0285 0.0000
vt 0.6158 0.9691 0.0000
vt 0.6158 0.0285 0.0000
vt 0.5995 0.9691 0.0000
vt 0.5995 0.0285 0.0000
vt 0.5831 0.9691 0.0000
vt 0.5831 0.0285 0.0000
vt 0.5665 0.9691 0.0000
vt 0.5665 0.0285 0.0000
vt 0.5498 0.9691 0.0000
vt 0.5498 0.0285 0.0000
vt 0.5329 0.9691 0.0000
vt 0.5329 0.0285 0.0000
vt 0.5158 0.9691 0.0000
vt 0.5158 0.0285 0.0000
vt 0.4988 0.9691 0.0000
vt 0.4988 0.0285 0.0000
vt 0.4819 0.9691 0.0000
vt 0.4819 0.0285 0.0000
vt 0.4651 0.9691 0.0000
vt 0.4651 0.0285 0.0000
vt 0.4485 0.9691 0.0000
vt 0.4485 0.0285 0.0000
vt 0.4321 0.9691 0.0000
vt 0.4321 0.0285 0.0000
vt 0.4158 0.9691 0.0000
vt 0.4158 0.0285 0.0000
vt 0.3995 0.9691 0.0000
vt 0.3995 0.0285 0.0000
vt 0.3832 0.9691 0.0000
vt 0.3832 0.0285 0.0000
vt 0.3668 0.9691 0.0000
vt 0.3668 0.0285 0.0000
vt 0.3504 0.9691 0.0000
vt 0.3504 0.0285 0.0000
vt 0.3339 0.9691 0.0000
vt 0.3339 0.0285 0.0000
vt 0.3171 0.9691 0.0000
vt 0.3171 0.0285 0.0000
vt 0.3002 0.9691 0.0000
vt 0.3002 0.0285 0.0000
vt 0.2832 0.9691 0.0000
vt 0.2832 0.0285 0.0000
# 114 texture coords

o Circle001
g Circle001
usemtl Material__25
s 2
f 1/1/1 2/2/1 3/3/1 4/4/1 
f 2/2/1 5/5/1 6/6/1 3/3/1 
f 5/5/1 7/7/1 8/8/1 6/6/1 
f 7/7/1 9/9/1 10/10/1 8/8/1 
f 9/9/1 11/11/1 12/12/1 10/10/1 
f 11/11/1 13/13/1 14/14/1 12/12/1 
f 13/13/1 15/15/1 16/16/1 14/14/1 
f 15/15/1 17/17/1 18/18/1 16/16/1 
f 17/17/1 19/19/1 20/20/1 18/18/1 
f 19/19/1 21/21/1 22/22/1 20/20/1 
f 21/21/1 23/23/1 24/24/1 22/22/1 
f 23/23/1 25/25/1 26/26/1 24/24/1 
f 25/25/1 27/27/1 28/28/1 26/26/1 
f 27/27/1 29/29/1 30/30/1 28/28/1 
f 29/31/1 31/32/2 32/33/2 30/34/1 
f 31/32/2 33/35/2 34/36/2 32/33/2 
f 33/35/2 35/37/2 36/38/2 34/36/2 
f 35/37/2 37/39/2 38/40/2 36/38/2 
f 37/39/2 39/41/2 40/42/2 38/40/2 
f 39/41/2 41/43/2 42/44/2 40/42/2 
f 41/43/2 43/45/2 44/46/2 42/44/2 
f 43/45/2 45/47/2 46/48/2 44/46/2 
f 45/47/2 47/49/2 48/50/2 46/48/2 
f 47/49/2 49/51/2 50/52/2 48/50/2 
f 49/51/2 51/53/2 52/54/2 50/52/2 
f 51/53/2 53/55/2 54/56/2 52/54/2 
f 53/55/2 55/57/2 56/58/2 54/56/2 
f 55/57/2 57/59/2 58/60/3 56/58/2 
f 57/59/2 59/61/3 60/62/3 58/60/3 
f 59/61/3 61/63/3 62/64/3 60/62/3 
f 61/63/3 63/65/3 64/66/3 62/64/3 
f 63/65/3 65/67/3 66/68/3 64/66/3 
f 65/67/3 67/69/3 68/70/3 66/68/3 
f 67/69/3 69/71/3 70/72/3 68/70/3 
f 69/71/3 71/73/3 72/74/3 70/72/3 
f 71/73/3 73/75/3 74/76/3 72/74/3 
f 73/75/3 75/77/3 76/78/3 74/76/3 
f 75/77/3 77/79/3 78/80/3 76/78/3 
f 77/79/3 79/81/3 80/82/3 78/80/3 
f 79/81/3 81/83/3 82/84/3 80/82/3 
f 81/83/3 83/85/3 84/86/3 82/84/3 
f 83/85/3 85/87/4 86/88/3 84/86/3 
f 85/87/4 87/89/4 88/90/4 86/88/3 
f 87/89/4 89/91/4 90/92/4 88/90/4 
f 89/91/4 91/93/4 92/94/4 90/92/4 
f 91/93/4 93/95/4 94/96/4 92/94/4 
f 93/95/4 95/97/4 96/98/4 94/96/4 
f 95/97/4 97/99/4 98/100/4 96/98/4 
f 97/99/4 99/101/4 100/102/4 98/100/4 
f 99/101/4 101/103/4 102/104/4 100/102/4 
f 101/103/4 103/105/4 104/106/4 102/104/4 
f 103/105/4 105/107/4 106/108/4 104/106/4 
f 105/107/4 107/109/4 108/110/4 106/108/4 
f 107/109/4 109/111/4 110/112/4 108/110/4 
f 109/111/4 111/113/4 112/114/4 110/112/4 
f 111/113/4 1/1/1 4/4/1 112/114/4 
# 56 polygons

